<?xml version="1.0" encoding="UTF-8"?><svg id="Vrstva_1" xmlns="http://www.w3.org/2000/svg" viewBox="0 0 136.65 136.65"><defs><style>.cls-1{fill:#fec51b;}.cls-2{fill:#fefdfa;}.cls-3{fill:#fefefe;}.cls-4{fill:none;stroke:#fec51b;stroke-miterlimit:10;stroke-width:7px;}.cls-5{fill:#fde086;}</style></defs><g id="b"><g id="c"><path class="cls-2" d="M.87,132.83c.64,1.12,1.51,1.99,2.63,2.63-.88,0-2.09.34-2.53-.1-.44-.44-.1-1.66-.1-2.53h0Z"/><path class="cls-3" d="M68.05,128.05c-19.41,0-38.83,0-58.24.02-1.15,0-1.56-.22-1.56-1.49.04-38.93.03-77.86,0-116.79,0-1.11.21-1.49,1.42-1.49,39,.03,78,.03,117.01,0,1.05,0,1.42.22,1.42,1.36-.03,39.02-.03,78.04,0,117.06,0,1.14-.38,1.35-1.43,1.35-19.54-.03-39.09-.02-58.63-.02h0Z"/><path class="cls-1" d="M71.12,87.24c-.42,1.18-.76,2.11-1.08,3.05-1.61,4.67-3.21,9.35-4.82,14.02-1.44,4.17-3.85,5.88-8.26,5.89-1.32,0-2.63,0-3.94,0-4.07-.01-6.57-1.76-7.97-5.58-5.7-15.66-11.39-31.31-17.09-46.97-1.11-3.04-2.24-6.07-3.31-9.12-1.59-4.54.39-8.69,4.76-10.09.89-.29,1.81-.3,2.73-.31,3.42-.02,6.84-.03,10.25,0,4.09.03,6.54,1.8,7.86,5.69,2.91,8.62,5.8,17.24,8.7,25.86.11.33.23.66.4,1.15.71-1.19.82-2.48,1.37-3.57,1.5-3.02,1.36-5.89-.07-8.98-1.46-3.16-2.5-6.53-3.64-9.84-1.55-4.48.45-8.6,4.77-9.99.93-.3,1.9-.31,2.86-.32,3.37-.02,6.75-.02,10.12,0,4.19.02,6.61,1.76,7.95,5.72,2.7,7.99,5.39,15.99,8.09,23.99.18.53.37,1.06.59,1.68,2.44-5.72,2.14-11.11-1.18-16.31-1.79-2.8-3.5-5.66-4.39-8.91-2.15-7.89,2.36-15.88,9.99-17.73,6.67-1.61,13.77,2.09,16.52,8.61,2.52,5.99,2.81,12.22,2.02,18.57-.84,6.76-3.63,12.94-5.76,19.32-3.48,10.41-7.1,20.77-10.66,31.15-1.48,4.31-3.85,5.99-8.44,5.99-1.45,0-2.89.02-4.34,0-3.68-.05-6.22-1.82-7.5-5.29-2.02-5.45-4-10.92-6.01-16.38-.13-.35-.27-.69-.52-1.29h0Z"/><path d="M13.15,25.43c0-2.72-.02-5.43,0-8.15.03-2.66,1.41-4.07,4.05-4.08,5.48-.03,10.96-.03,16.43,0,2.4.01,4.05,1.61,4.01,3.75-.04,2.1-1.69,3.63-4.01,3.65-3.94.03-7.89.04-11.83-.01-.96-.01-1.28.21-1.26,1.22.06,3.98.06,7.97.01,11.95-.04,3.09-3.09,4.9-5.61,3.37-1.22-.74-1.81-1.87-1.79-3.3,0-.09,0-.18,0-.26v-8.15h0Z"/><path d="M110.92,123.18c-2.67,0-5.35.02-8.02,0-2.52-.02-4.2-1.53-4.18-3.72s1.72-3.68,4.23-3.69c3.9-.01,7.8-.03,11.7.02.94.01,1.17-.27,1.16-1.18-.05-3.98-.05-7.97,0-11.95.03-2.83,2.49-4.64,4.99-3.7,1.48.56,2.38,1.67,2.39,3.29.03,5.78.05,11.56,0,17.34-.02,2.11-1.47,3.52-3.59,3.57-2.89.06-5.78.02-8.68.02h0v.02Z"/><path class="cls-5" d="M92.01,93.77c.42-1.4.85-2.8,1.27-4.2,2.02-6.75,4-13.51,6.08-20.24,2.2-7.12,1.08-13.72-2.8-19.99-1.56-2.52-3.25-5-3.75-8.03-.5-3.07,1.24-6.22,4.1-7.3,2.73-1.03,6.35.29,7.92,2.87,1.47,2.42,1.97,5.11,2.3,7.87.78,6.63-.96,12.81-3.13,18.97-4.32,12.31-8.48,24.67-12.71,37.01-.44,1.3-1.36,1.95-2.74,1.95-3.82,0-3.81,0-5.08-3.49-4.03-11.06-8.08-22.12-12.12-33.18-.09-.24-.2-.47-.43-.99-.79,2.25-1.51,4.24-2.2,6.24-3.43,9.98-6.88,19.94-10.25,29.94-.43,1.26-1.03,1.68-2.34,1.66-3.75-.07-3.79,0-5.08-3.52-5.78-15.83-11.53-31.67-17.29-47.5-.61-1.69-1.2-3.38-1.86-5.05-.38-.97-.09-1.23.88-1.21,2.93.04,5.87.06,8.81-.01,1.06-.03,1.53.34,1.87,1.34,3.92,11.75,7.87,23.49,11.82,35.23,1.21,3.61,2.44,7.21,3.67,10.82.12.35.14.77.5,1.03.43-.27.43-.75.56-1.14,3.22-9.63,6.42-19.27,9.67-28.89.31-.93.29-1.74-.05-2.65-1.74-4.67-3.44-9.37-5.14-14.06-.59-1.64-.58-1.65,1.23-1.65,2.72,0,5.43.06,8.15-.03,1.21-.04,1.76.33,2.14,1.5,4.99,14.99,10.03,29.97,15.07,44.94.2.6.41,1.2.62,1.79.1,0,.21-.01.31-.02h0Z"/><rect class="cls-4" x="3.5" y="3.5" width="129.65" height="129.65"/></g></g></svg>